<svg xmlns="http://www.w3.org/2000/svg" xmlns:xlink="http://www.w3.org/1999/xlink" width="250" zoomAndPan="magnify" viewBox="0 0 187.5 44.999999" height="60" preserveAspectRatio="xMidYMid meet" version="1.2"><defs><clipPath id="a69dbf6072"><path d="M 4.3125 0.0585938 L 50.945312 0.0585938 L 50.945312 44.9375 L 4.3125 44.9375 Z M 4.3125 0.0585938 "/></clipPath><clipPath id="c77c09b395"><path d="M 6.730469 0.0585938 L 48.613281 0.0585938 C 49.851562 0.0585938 50.855469 1.066406 50.855469 2.304688 L 50.855469 42.695312 C 50.855469 43.933594 49.851562 44.941406 48.613281 44.941406 L 6.730469 44.941406 C 5.492188 44.941406 4.488281 43.933594 4.488281 42.695312 L 4.488281 2.304688 C 4.488281 1.066406 5.492188 0.0585938 6.730469 0.0585938 Z M 6.730469 0.0585938 "/></clipPath><clipPath id="5ba3d1ba90"><path d="M 4.761719 0.0585938 L 50.867188 0.0585938 L 50.867188 44.9375 L 4.761719 44.9375 Z M 4.761719 0.0585938 "/></clipPath><clipPath id="313e1c3d33"><path d="M 18.226562 0.0585938 L 37.394531 0.0585938 C 40.964844 0.0585938 44.386719 1.476562 46.914062 4.003906 C 49.4375 6.527344 50.855469 9.953125 50.855469 13.523438 L 50.855469 31.476562 C 50.855469 35.046875 49.4375 38.472656 46.914062 40.996094 C 44.386719 43.523438 40.964844 44.941406 37.394531 44.941406 L 18.226562 44.941406 C 14.652344 44.941406 11.230469 43.523438 8.703125 40.996094 C 6.179688 38.472656 4.761719 35.046875 4.761719 31.476562 L 4.761719 13.523438 C 4.761719 9.953125 6.179688 6.527344 8.703125 4.003906 C 11.230469 1.476562 14.652344 0.0585938 18.226562 0.0585938 Z M 18.226562 0.0585938 "/></clipPath><clipPath id="26d97330a2"><path d="M 13.121094 15 L 23 15 L 23 35 L 13.121094 35 Z M 13.121094 15 "/></clipPath><clipPath id="26f5b7af56"><path d="M 22 12 L 33 12 L 33 37.410156 L 22 37.410156 Z M 22 12 "/></clipPath><clipPath id="923754c7a6"><path d="M 32 7.488281 L 42 7.488281 L 42 35 L 32 35 Z M 32 7.488281 "/></clipPath></defs><g id="86cc6a00ee"><g style="fill:#1e1e1e;fill-opacity:1;"><g transform="translate(53.947039, 30.40427)"><path style="stroke:none" d="M 7.640625 -15.125 C 7.890625 -15.125 8.125 -15.070312 8.34375 -14.96875 C 8.5625 -14.863281 8.722656 -14.695312 8.828125 -14.46875 L 15.453125 -1.5 C 15.648438 -1.15625 15.703125 -0.851562 15.609375 -0.59375 C 15.515625 -0.332031 15.332031 -0.128906 15.0625 0.015625 C 14.800781 0.160156 14.523438 0.234375 14.234375 0.234375 C 14.015625 0.234375 13.789062 0.175781 13.5625 0.0625 C 13.34375 -0.0507812 13.171875 -0.21875 13.046875 -0.4375 L 11.40625 -3.6875 L 3.875 -3.6875 L 2.25 -0.4375 C 2.132812 -0.1875 1.960938 -0.015625 1.734375 0.078125 C 1.515625 0.179688 1.296875 0.234375 1.078125 0.234375 C 0.804688 0.234375 0.539062 0.160156 0.28125 0.015625 C 0.03125 -0.128906 -0.148438 -0.332031 -0.265625 -0.59375 C -0.378906 -0.851562 -0.367188 -1.128906 -0.234375 -1.421875 L 6.421875 -14.46875 C 6.546875 -14.726562 6.707031 -14.898438 6.90625 -14.984375 C 7.101562 -15.078125 7.347656 -15.125 7.640625 -15.125 Z M 7.640625 -11.171875 L 5.03125 -5.953125 L 10.265625 -5.953125 Z M 7.640625 -11.171875 "/></g></g><g style="fill:#1e1e1e;fill-opacity:1;"><g transform="translate(69.374374, 30.40427)"><path style="stroke:none" d="M 9.234375 -8.703125 C 8.878906 -9.117188 8.457031 -9.410156 7.96875 -9.578125 C 7.488281 -9.753906 7.015625 -9.84375 6.546875 -9.84375 C 5.515625 -9.84375 4.6875 -9.488281 4.0625 -8.78125 C 3.4375 -8.070312 3.125 -7.113281 3.125 -5.90625 C 3.125 -4.757812 3.445312 -3.832031 4.09375 -3.125 C 4.75 -2.425781 5.597656 -2.078125 6.640625 -2.078125 C 7.109375 -2.078125 7.582031 -2.160156 8.0625 -2.328125 C 8.539062 -2.492188 8.96875 -2.757812 9.34375 -3.125 C 9.6875 -3.46875 10.023438 -3.644531 10.359375 -3.65625 C 10.703125 -3.675781 10.984375 -3.582031 11.203125 -3.375 C 11.421875 -3.175781 11.539062 -2.914062 11.5625 -2.59375 C 11.582031 -2.28125 11.445312 -1.960938 11.15625 -1.640625 C 10.539062 -0.960938 9.835938 -0.476562 9.046875 -0.1875 C 8.265625 0.09375 7.453125 0.234375 6.609375 0.234375 C 5.378906 0.234375 4.300781 -0.0195312 3.375 -0.53125 C 2.445312 -1.050781 1.722656 -1.769531 1.203125 -2.6875 C 0.691406 -3.601562 0.4375 -4.671875 0.4375 -5.890625 C 0.4375 -7.148438 0.691406 -8.25 1.203125 -9.1875 C 1.710938 -10.125 2.425781 -10.847656 3.34375 -11.359375 C 4.257812 -11.867188 5.328125 -12.125 6.546875 -12.125 C 7.398438 -12.125 8.195312 -11.992188 8.9375 -11.734375 C 9.675781 -11.472656 10.359375 -10.972656 10.984375 -10.234375 C 11.265625 -9.910156 11.382812 -9.59375 11.34375 -9.28125 C 11.3125 -8.96875 11.175781 -8.707031 10.9375 -8.5 C 10.707031 -8.300781 10.429688 -8.207031 10.109375 -8.21875 C 9.785156 -8.226562 9.492188 -8.390625 9.234375 -8.703125 Z M 9.234375 -8.703125 "/></g></g><g style="fill:#1e1e1e;fill-opacity:1;"><g transform="translate(81.085058, 30.40427)"><path style="stroke:none" d="M 10.9375 -11.890625 C 11.84375 -11.890625 12.296875 -11.492188 12.296875 -10.703125 L 12.296875 2.734375 C 12.296875 3.117188 12.15625 3.410156 11.875 3.609375 C 11.59375 3.816406 11.289062 3.921875 10.96875 3.921875 C 10.632812 3.921875 10.332031 3.816406 10.0625 3.609375 C 9.789062 3.410156 9.65625 3.117188 9.65625 2.734375 L 9.65625 -0.84375 C 9.132812 -0.5 8.5625 -0.234375 7.9375 -0.046875 C 7.320312 0.140625 6.75 0.234375 6.21875 0.234375 C 5.09375 0.234375 4.101562 -0.03125 3.25 -0.5625 C 2.40625 -1.09375 1.742188 -1.832031 1.265625 -2.78125 C 0.796875 -3.726562 0.5625 -4.828125 0.5625 -6.078125 C 0.5625 -7.273438 0.800781 -8.328125 1.28125 -9.234375 C 1.769531 -10.148438 2.445312 -10.859375 3.3125 -11.359375 C 4.175781 -11.867188 5.175781 -12.125 6.3125 -12.125 C 6.84375 -12.125 7.40625 -12.046875 8 -11.890625 C 8.601562 -11.742188 9.171875 -11.472656 9.703125 -11.078125 C 9.828125 -11.617188 10.238281 -11.890625 10.9375 -11.890625 Z M 6.28125 -2.125 C 7 -2.125 7.675781 -2.289062 8.3125 -2.625 C 8.957031 -2.957031 9.40625 -3.429688 9.65625 -4.046875 L 9.65625 -7.921875 C 9.351562 -8.515625 8.90625 -8.96875 8.3125 -9.28125 C 7.726562 -9.601562 7.125 -9.765625 6.5 -9.765625 C 5.519531 -9.765625 4.726562 -9.421875 4.125 -8.734375 C 3.519531 -8.054688 3.21875 -7.160156 3.21875 -6.046875 C 3.21875 -4.878906 3.5 -3.929688 4.0625 -3.203125 C 4.625 -2.484375 5.363281 -2.125 6.28125 -2.125 Z M 6.28125 -2.125 "/></g></g><g style="fill:#1e1e1e;fill-opacity:1;"><g transform="translate(94.735881, 30.40427)"><path style="stroke:none" d="M 11.484375 -11.890625 C 11.878906 -11.890625 12.203125 -11.765625 12.453125 -11.515625 C 12.703125 -11.273438 12.828125 -10.96875 12.828125 -10.59375 L 12.828125 -1.1875 C 12.828125 -0.800781 12.679688 -0.503906 12.390625 -0.296875 C 12.109375 -0.0976562 11.8125 0 11.5 0 C 11.15625 0 10.847656 -0.101562 10.578125 -0.3125 C 10.304688 -0.519531 10.171875 -0.820312 10.171875 -1.21875 L 10.171875 -1.3125 C 9.523438 -0.6875 8.859375 -0.269531 8.171875 -0.0625 C 7.492188 0.132812 6.859375 0.234375 6.265625 0.234375 C 4.640625 0.234375 3.375 -0.273438 2.46875 -1.296875 C 1.570312 -2.316406 1.125 -3.703125 1.125 -5.453125 L 1.125 -10.59375 C 1.125 -10.945312 1.238281 -11.25 1.46875 -11.5 C 1.707031 -11.757812 2.035156 -11.890625 2.453125 -11.890625 C 2.859375 -11.890625 3.179688 -11.757812 3.421875 -11.5 C 3.660156 -11.25 3.78125 -10.945312 3.78125 -10.59375 L 3.78125 -5.40625 C 3.78125 -4.382812 4.007812 -3.578125 4.46875 -2.984375 C 4.9375 -2.398438 5.664062 -2.109375 6.65625 -2.109375 C 6.957031 -2.109375 7.304688 -2.1875 7.703125 -2.34375 C 8.097656 -2.507812 8.484375 -2.753906 8.859375 -3.078125 C 9.234375 -3.410156 9.546875 -3.828125 9.796875 -4.328125 C 10.046875 -4.835938 10.171875 -5.4375 10.171875 -6.125 L 10.171875 -10.59375 C 10.171875 -10.96875 10.28125 -11.273438 10.5 -11.515625 C 10.71875 -11.765625 11.046875 -11.890625 11.484375 -11.890625 Z M 11.484375 -11.890625 "/></g></g><g style="fill:#1e1e1e;fill-opacity:1;"><g transform="translate(108.877582, 30.40427)"><path style="stroke:none" d="M 3.5 -13.65625 C 3.5 -13.257812 3.351562 -12.960938 3.0625 -12.765625 C 2.78125 -12.578125 2.476562 -12.484375 2.15625 -12.484375 C 1.8125 -12.484375 1.5 -12.578125 1.21875 -12.765625 C 0.9375 -12.960938 0.796875 -13.257812 0.796875 -13.65625 L 0.796875 -13.953125 C 0.796875 -14.359375 0.9375 -14.65625 1.21875 -14.84375 C 1.5 -15.03125 1.8125 -15.125 2.15625 -15.125 C 2.476562 -15.125 2.78125 -15.03125 3.0625 -14.84375 C 3.351562 -14.65625 3.5 -14.359375 3.5 -13.953125 Z M 0.8125 -10.75 C 0.8125 -11.125 0.957031 -11.40625 1.25 -11.59375 C 1.539062 -11.789062 1.84375 -11.890625 2.15625 -11.890625 C 2.476562 -11.890625 2.78125 -11.789062 3.0625 -11.59375 C 3.34375 -11.40625 3.484375 -11.132812 3.484375 -10.78125 L 3.484375 -1.140625 C 3.484375 -0.753906 3.34375 -0.46875 3.0625 -0.28125 C 2.78125 -0.09375 2.476562 0 2.15625 0 C 1.84375 0 1.539062 -0.09375 1.25 -0.28125 C 0.957031 -0.46875 0.8125 -0.753906 0.8125 -1.140625 Z M 0.8125 -10.75 "/></g></g><g style="fill:#1e1e1e;fill-opacity:1;"><g transform="translate(112.73421, 30.40427)"><path style="stroke:none" d="M 6.3125 -11.890625 C 6.726562 -11.890625 7.0625 -11.800781 7.3125 -11.625 C 7.5625 -11.445312 7.6875 -11.15625 7.6875 -10.75 C 7.6875 -10.375 7.5625 -10.078125 7.3125 -9.859375 C 7.0625 -9.640625 6.726562 -9.53125 6.3125 -9.53125 C 5.332031 -9.53125 4.640625 -9.179688 4.234375 -8.484375 C 3.835938 -7.785156 3.640625 -6.835938 3.640625 -5.640625 L 3.640625 -1.1875 C 3.640625 -0.84375 3.515625 -0.554688 3.265625 -0.328125 C 3.023438 -0.109375 2.722656 0 2.359375 0 C 1.953125 0 1.625 -0.109375 1.375 -0.328125 C 1.125 -0.554688 1 -0.84375 1 -1.1875 L 1 -10.703125 C 1 -11.078125 1.144531 -11.367188 1.4375 -11.578125 C 1.726562 -11.785156 2.035156 -11.890625 2.359375 -11.890625 C 2.691406 -11.890625 2.988281 -11.789062 3.25 -11.59375 C 3.507812 -11.394531 3.640625 -11.097656 3.640625 -10.703125 L 3.640625 -10.5625 C 3.984375 -11.019531 4.378906 -11.351562 4.828125 -11.5625 C 5.285156 -11.78125 5.78125 -11.890625 6.3125 -11.890625 Z M 6.3125 -11.890625 "/></g></g><g style="fill:#1e1e1e;fill-opacity:1;"><g transform="translate(119.746486, 30.40427)"><path style="stroke:none" d="M 6.6875 -2.078125 C 7.132812 -2.078125 7.578125 -2.140625 8.015625 -2.265625 C 8.453125 -2.390625 8.859375 -2.601562 9.234375 -2.90625 C 9.585938 -3.226562 9.9375 -3.375 10.28125 -3.34375 C 10.625 -3.320312 10.910156 -3.195312 11.140625 -2.96875 C 11.367188 -2.75 11.484375 -2.472656 11.484375 -2.140625 C 11.484375 -1.804688 11.316406 -1.484375 10.984375 -1.171875 C 10.441406 -0.640625 9.796875 -0.269531 9.046875 -0.0625 C 8.296875 0.144531 7.53125 0.242188 6.75 0.234375 C 5.539062 0.234375 4.472656 -0.015625 3.546875 -0.515625 C 2.617188 -1.015625 1.890625 -1.707031 1.359375 -2.59375 C 0.835938 -3.476562 0.578125 -4.507812 0.578125 -5.6875 C 0.578125 -6.957031 0.828125 -8.078125 1.328125 -9.046875 C 1.828125 -10.015625 2.53125 -10.769531 3.4375 -11.3125 C 4.351562 -11.851562 5.4375 -12.125 6.6875 -12.125 C 7.9375 -12.125 8.992188 -11.867188 9.859375 -11.359375 C 10.734375 -10.859375 11.398438 -10.148438 11.859375 -9.234375 C 12.316406 -8.328125 12.546875 -7.265625 12.546875 -6.046875 C 12.546875 -5.660156 12.46875 -5.332031 12.3125 -5.0625 C 12.15625 -4.789062 11.742188 -4.65625 11.078125 -4.65625 L 3.296875 -4.65625 C 3.515625 -3.882812 3.925781 -3.257812 4.53125 -2.78125 C 5.144531 -2.3125 5.863281 -2.078125 6.6875 -2.078125 Z M 6.703125 -9.8125 C 5.804688 -9.8125 5.050781 -9.523438 4.4375 -8.953125 C 3.832031 -8.390625 3.441406 -7.648438 3.265625 -6.734375 L 10.078125 -6.734375 C 9.992188 -7.648438 9.6875 -8.390625 9.15625 -8.953125 C 8.632812 -9.523438 7.816406 -9.8125 6.703125 -9.8125 Z M 6.703125 -9.8125 "/></g></g><g style="fill:#1e1e1e;fill-opacity:1;"><g transform="translate(133.350558, 30.40427)"><path style="stroke:none" d="M 4.046875 -12.625 L 4.046875 -7.96875 L 11.53125 -7.96875 C 11.925781 -7.96875 12.222656 -7.847656 12.421875 -7.609375 C 12.628906 -7.367188 12.734375 -7.109375 12.734375 -6.828125 C 12.734375 -6.546875 12.628906 -6.289062 12.421875 -6.0625 C 12.222656 -5.84375 11.925781 -5.734375 11.53125 -5.734375 L 4.046875 -5.734375 L 4.046875 -1.265625 C 4.046875 -0.859375 3.90625 -0.546875 3.625 -0.328125 C 3.34375 -0.109375 3.039062 0 2.71875 0 C 2.375 0 2.0625 -0.109375 1.78125 -0.328125 C 1.5 -0.546875 1.359375 -0.847656 1.359375 -1.234375 L 1.359375 -13.515625 C 1.359375 -13.890625 1.507812 -14.210938 1.8125 -14.484375 C 2.113281 -14.753906 2.46875 -14.890625 2.875 -14.890625 L 11.9375 -14.890625 C 12.363281 -14.890625 12.675781 -14.769531 12.875 -14.53125 C 13.082031 -14.300781 13.1875 -14.039062 13.1875 -13.75 C 13.1875 -13.46875 13.082031 -13.207031 12.875 -12.96875 C 12.675781 -12.738281 12.363281 -12.625 11.9375 -12.625 Z M 4.046875 -12.625 "/></g></g><g style="fill:#1e1e1e;fill-opacity:1;"><g transform="translate(146.907881, 30.40427)"><path style="stroke:none" d="M 3.484375 -1.171875 C 3.484375 -0.859375 3.351562 -0.582031 3.09375 -0.34375 C 2.84375 -0.113281 2.53125 0 2.15625 0 C 1.757812 0 1.4375 -0.113281 1.1875 -0.34375 C 0.9375 -0.582031 0.8125 -0.859375 0.8125 -1.171875 L 0.8125 -13.953125 C 0.8125 -14.265625 0.9375 -14.535156 1.1875 -14.765625 C 1.4375 -15.003906 1.757812 -15.125 2.15625 -15.125 C 2.53125 -15.125 2.84375 -15.003906 3.09375 -14.765625 C 3.351562 -14.535156 3.484375 -14.265625 3.484375 -13.953125 Z M 3.484375 -1.171875 "/></g></g><g style="fill:#1e1e1e;fill-opacity:1;"><g transform="translate(150.764509, 30.40427)"><path style="stroke:none" d="M 6.6875 -12.125 C 7.9375 -12.125 9.023438 -11.863281 9.953125 -11.34375 C 10.890625 -10.820312 11.613281 -10.09375 12.125 -9.15625 C 12.644531 -8.226562 12.90625 -7.140625 12.90625 -5.890625 C 12.882812 -4.671875 12.613281 -3.601562 12.09375 -2.6875 C 11.570312 -1.769531 10.847656 -1.050781 9.921875 -0.53125 C 8.992188 -0.0195312 7.914062 0.234375 6.6875 0.234375 C 5.46875 0.234375 4.390625 -0.0195312 3.453125 -0.53125 C 2.523438 -1.050781 1.796875 -1.769531 1.265625 -2.6875 C 0.742188 -3.601562 0.476562 -4.671875 0.46875 -5.890625 C 0.46875 -7.140625 0.726562 -8.226562 1.25 -9.15625 C 1.769531 -10.09375 2.5 -10.820312 3.4375 -11.34375 C 4.375 -11.863281 5.457031 -12.125 6.6875 -12.125 Z M 6.6875 -2.109375 C 7.75 -2.109375 8.59375 -2.457031 9.21875 -3.15625 C 9.851562 -3.851562 10.171875 -4.765625 10.171875 -5.890625 C 10.171875 -7.046875 9.851562 -7.984375 9.21875 -8.703125 C 8.59375 -9.429688 7.75 -9.796875 6.6875 -9.796875 C 5.644531 -9.796875 4.800781 -9.429688 4.15625 -8.703125 C 3.519531 -7.984375 3.203125 -7.046875 3.203125 -5.890625 C 3.203125 -4.765625 3.519531 -3.851562 4.15625 -3.15625 C 4.800781 -2.457031 5.644531 -2.109375 6.6875 -2.109375 Z M 6.6875 -2.109375 "/></g></g><g style="fill:#1e1e1e;fill-opacity:1;"><g transform="translate(163.760827, 30.40427)"><path style="stroke:none" d="M 0.53125 -10.140625 C 0.394531 -10.472656 0.382812 -10.769531 0.5 -11.03125 C 0.613281 -11.300781 0.796875 -11.507812 1.046875 -11.65625 C 1.296875 -11.8125 1.554688 -11.890625 1.828125 -11.890625 C 2.085938 -11.890625 2.332031 -11.804688 2.5625 -11.640625 C 2.800781 -11.484375 2.957031 -11.304688 3.03125 -11.109375 L 6.078125 -4.15625 L 9 -10.171875 C 9.101562 -10.429688 9.265625 -10.628906 9.484375 -10.765625 C 9.703125 -10.898438 9.945312 -10.96875 10.21875 -10.96875 C 10.789062 -10.96875 11.203125 -10.707031 11.453125 -10.1875 L 14.40625 -4.109375 L 17.421875 -11.0625 C 17.660156 -11.613281 18.078125 -11.890625 18.671875 -11.890625 C 19.078125 -11.890625 19.425781 -11.722656 19.71875 -11.390625 C 20.007812 -11.054688 20.050781 -10.648438 19.84375 -10.171875 L 15.703125 -0.4375 C 15.535156 0.0078125 15.140625 0.234375 14.515625 0.234375 C 14.253906 0.234375 14.007812 0.179688 13.78125 0.078125 C 13.550781 -0.015625 13.375 -0.179688 13.25 -0.421875 L 10.265625 -6.75 L 7.203125 -0.4375 C 6.984375 0.0078125 6.5625 0.234375 5.9375 0.234375 C 5.675781 0.234375 5.441406 0.179688 5.234375 0.078125 C 5.035156 -0.015625 4.875 -0.195312 4.75 -0.46875 Z M 0.53125 -10.140625 "/></g></g><g clip-rule="nonzero" clip-path="url(#a69dbf6072)"><g clip-rule="nonzero" clip-path="url(#c77c09b395)"><path style=" stroke:none;fill-rule:nonzero;fill:#ffffff;fill-opacity:1;" d="M 4.488281 0.0585938 L 50.769531 0.0585938 L 50.769531 44.941406 L 4.488281 44.941406 Z M 4.488281 0.0585938 "/></g></g><g clip-rule="nonzero" clip-path="url(#5ba3d1ba90)"><g clip-rule="nonzero" clip-path="url(#313e1c3d33)"><path style=" stroke:none;fill-rule:nonzero;fill:#1e1e1e;fill-opacity:1;" d="M 4.761719 0.0585938 L 50.867188 0.0585938 L 50.867188 44.941406 L 4.761719 44.941406 Z M 4.761719 0.0585938 "/></g></g><g clip-rule="nonzero" clip-path="url(#26d97330a2)"><path style=" stroke:none;fill-rule:nonzero;fill:#3ab795;fill-opacity:1;" d="M 20.796875 19.4375 C 20.617188 19.289062 15.027344 15.605469 14.476562 15.3125 C 13.785156 14.945312 13.195312 15.339844 13.148438 16.148438 C 13.136719 16.335938 13.195312 25.332031 13.199219 25.9375 C 13.125 27.125 13.480469 28.152344 14.316406 29.003906 C 14.722656 29.421875 22.1875 34.117188 22.195312 34.101562 C 22.320312 33.992188 22.363281 24.105469 22.28125 23.550781 C 22.496094 21.921875 22.09375 20.515625 20.796875 19.4375 Z M 20.796875 19.4375 "/></g><g clip-rule="nonzero" clip-path="url(#26f5b7af56)"><path style=" stroke:none;fill-rule:nonzero;fill:#3ab795;fill-opacity:1;" d="M 32.109375 33.703125 C 32.117188 32.160156 32.140625 20.339844 32.136719 20.222656 C 32.082031 18.882812 31.539062 17.773438 30.429688 17.03125 C 28.515625 15.757812 24.304688 13.136719 24.164062 13.082031 C 24.003906 13.011719 23.851562 12.980469 23.707031 12.988281 C 23.578125 12.988281 23.464844 13.019531 23.367188 13.085938 C 23.113281 13.234375 22.945312 13.539062 22.917969 13.957031 C 22.910156 14.113281 22.941406 33.503906 22.933594 34.238281 C 22.929688 34.535156 22.992188 34.710938 23.289062 34.882812 C 24.425781 35.550781 25.542969 36.257812 26.640625 36.988281 C 27.289062 37.414062 27.875 37.402344 28.507812 36.984375 C 29.457031 36.359375 30.398438 35.71875 31.394531 35.175781 C 32.035156 34.824219 32.292969 34.402344 32.109375 33.703125 Z M 32.109375 33.703125 "/></g><g clip-rule="nonzero" clip-path="url(#923754c7a6)"><path style=" stroke:none;fill-rule:nonzero;fill:#3ab795;fill-opacity:1;" d="M 41.964844 15.445312 C 41.980469 15.199219 41.980469 14.953125 41.964844 14.71875 C 41.964844 14.699219 41.964844 14.683594 41.964844 14.667969 C 41.878906 13.1875 41.171875 12.066406 39.949219 11.257812 C 38.601562 10.367188 37.261719 9.457031 35.875 8.621094 C 35.308594 8.28125 34.761719 7.890625 34.128906 7.652344 C 34.125 7.648438 34.121094 7.644531 34.117188 7.644531 C 33.925781 7.542969 33.742188 7.5 33.574219 7.507812 C 33.304688 7.492188 33.113281 7.589844 33 7.824219 C 32.882812 7.988281 32.804688 8.210938 32.789062 8.480469 C 32.785156 8.550781 32.890625 32.460938 32.867188 34.058594 C 32.996094 34.257812 33.132812 34.128906 33.25 34.050781 C 35.050781 32.890625 36.851562 31.726562 38.652344 30.5625 C 40.382812 29.707031 41.777344 28.554688 41.953125 26.46875 C 42.023438 25.621094 41.964844 16.3125 41.964844 15.445312 Z M 41.964844 15.445312 "/></g></g></svg>