<svg xmlns="http://www.w3.org/2000/svg" xmlns:xlink="http://www.w3.org/1999/xlink" width="500" zoomAndPan="magnify" viewBox="0 0 375 374.999991" height="500" preserveAspectRatio="xMidYMid meet" version="1.2"><defs><clipPath id="c67a1ebb38"><path d="M 70 165 L 92 165 L 92 222.84375 L 70 222.84375 Z M 70 165 "/></clipPath><clipPath id="e6a69b913d"><path d="M 93 152.34375 L 115 152.34375 L 115 216 L 93 216 Z M 93 152.34375 "/></clipPath></defs><g id="88ffca327e"><rect x="0" width="375" y="0" height="374.999991" style="fill:#ffffff;fill-opacity:1;stroke:none;"/><rect x="0" width="375" y="0" height="374.999991" style="fill:#ffffff;fill-opacity:1;stroke:none;"/><g style="fill:#373643;fill-opacity:1;"><g transform="translate(130.657178, 200.041029)"><path style="stroke:none" d="M 11.875 -23.5 C 12.257812 -23.5 12.617188 -23.414062 12.953125 -23.25 C 13.296875 -23.09375 13.550781 -22.835938 13.71875 -22.484375 L 24 -2.328125 C 24.3125 -1.796875 24.394531 -1.328125 24.25 -0.921875 C 24.101562 -0.523438 23.820312 -0.210938 23.40625 0.015625 C 23 0.242188 22.566406 0.359375 22.109375 0.359375 C 21.773438 0.359375 21.429688 0.265625 21.078125 0.078125 C 20.722656 -0.0976562 20.453125 -0.351562 20.265625 -0.6875 L 17.71875 -5.734375 L 6.03125 -5.734375 L 3.484375 -0.6875 C 3.316406 -0.300781 3.054688 -0.03125 2.703125 0.125 C 2.347656 0.28125 2.003906 0.359375 1.671875 0.359375 C 1.253906 0.359375 0.847656 0.242188 0.453125 0.015625 C 0.0546875 -0.210938 -0.226562 -0.523438 -0.40625 -0.921875 C -0.59375 -1.328125 -0.578125 -1.757812 -0.359375 -2.21875 L 9.984375 -22.484375 C 10.179688 -22.890625 10.429688 -23.160156 10.734375 -23.296875 C 11.035156 -23.429688 11.414062 -23.5 11.875 -23.5 Z M 11.875 -17.359375 L 7.8125 -9.265625 L 15.9375 -9.265625 Z M 11.875 -17.359375 "/></g></g><g style="fill:#373643;fill-opacity:1;"><g transform="translate(154.579609, 200.041029)"><path style="stroke:none" d="M 14.34375 -13.515625 C 13.789062 -14.160156 13.132812 -14.613281 12.375 -14.875 C 11.625 -15.144531 10.890625 -15.28125 10.171875 -15.28125 C 8.566406 -15.28125 7.28125 -14.726562 6.3125 -13.625 C 5.34375 -12.53125 4.859375 -11.050781 4.859375 -9.1875 C 4.859375 -7.394531 5.359375 -5.953125 6.359375 -4.859375 C 7.367188 -3.773438 8.6875 -3.234375 10.3125 -3.234375 C 11.039062 -3.234375 11.78125 -3.359375 12.53125 -3.609375 C 13.28125 -3.867188 13.945312 -4.285156 14.53125 -4.859375 C 15.0625 -5.398438 15.585938 -5.679688 16.109375 -5.703125 C 16.628906 -5.722656 17.054688 -5.578125 17.390625 -5.265625 C 17.734375 -4.953125 17.921875 -4.546875 17.953125 -4.046875 C 17.992188 -3.546875 17.785156 -3.046875 17.328125 -2.546875 C 16.378906 -1.503906 15.289062 -0.757812 14.0625 -0.3125 C 12.84375 0.132812 11.582031 0.359375 10.28125 0.359375 C 8.363281 0.359375 6.6875 -0.0351562 5.25 -0.828125 C 3.8125 -1.628906 2.691406 -2.742188 1.890625 -4.171875 C 1.085938 -5.597656 0.6875 -7.257812 0.6875 -9.15625 C 0.6875 -11.113281 1.078125 -12.816406 1.859375 -14.265625 C 2.648438 -15.722656 3.757812 -16.847656 5.1875 -17.640625 C 6.613281 -18.441406 8.273438 -18.84375 10.171875 -18.84375 C 11.503906 -18.84375 12.742188 -18.632812 13.890625 -18.21875 C 15.035156 -17.8125 16.09375 -17.039062 17.0625 -15.90625 C 17.5 -15.394531 17.6875 -14.894531 17.625 -14.40625 C 17.5625 -13.925781 17.347656 -13.53125 16.984375 -13.21875 C 16.628906 -12.90625 16.203125 -12.753906 15.703125 -12.765625 C 15.203125 -12.773438 14.75 -13.023438 14.34375 -13.515625 Z M 14.34375 -13.515625 "/></g></g><g style="fill:#373643;fill-opacity:1;"><g transform="translate(172.730083, 200.041029)"><path style="stroke:none" d="M 17 -18.484375 C 18.394531 -18.484375 19.09375 -17.863281 19.09375 -16.625 L 19.09375 4.25 C 19.09375 4.851562 18.875 5.3125 18.4375 5.625 C 18.007812 5.9375 17.539062 6.09375 17.03125 6.09375 C 16.519531 6.09375 16.050781 5.9375 15.625 5.625 C 15.207031 5.3125 15 4.851562 15 4.25 L 15 -1.3125 C 14.195312 -0.78125 13.3125 -0.367188 12.34375 -0.078125 C 11.375 0.210938 10.476562 0.359375 9.65625 0.359375 C 7.914062 0.359375 6.382812 -0.0507812 5.0625 -0.875 C 3.75 -1.695312 2.722656 -2.84375 1.984375 -4.3125 C 1.242188 -5.789062 0.875 -7.5 0.875 -9.4375 C 0.875 -11.300781 1.25 -12.941406 2 -14.359375 C 2.75 -15.773438 3.796875 -16.875 5.140625 -17.65625 C 6.484375 -18.445312 8.035156 -18.84375 9.796875 -18.84375 C 10.617188 -18.84375 11.492188 -18.722656 12.421875 -18.484375 C 13.359375 -18.242188 14.238281 -17.820312 15.0625 -17.21875 C 15.257812 -18.0625 15.90625 -18.484375 17 -18.484375 Z M 9.765625 -3.296875 C 10.878906 -3.296875 11.929688 -3.554688 12.921875 -4.078125 C 13.921875 -4.597656 14.613281 -5.332031 15 -6.28125 L 15 -12.3125 C 14.539062 -13.226562 13.847656 -13.929688 12.921875 -14.421875 C 12.003906 -14.921875 11.0625 -15.171875 10.09375 -15.171875 C 8.570312 -15.171875 7.34375 -14.640625 6.40625 -13.578125 C 5.476562 -12.515625 5.015625 -11.125 5.015625 -9.40625 C 5.015625 -7.59375 5.445312 -6.117188 6.3125 -4.984375 C 7.1875 -3.859375 8.335938 -3.296875 9.765625 -3.296875 Z M 9.765625 -3.296875 "/></g></g><g style="fill:#373643;fill-opacity:1;"><g transform="translate(193.893595, 200.041029)"><path style="stroke:none" d="M 17.828125 -18.484375 C 18.460938 -18.484375 18.972656 -18.289062 19.359375 -17.90625 C 19.742188 -17.519531 19.9375 -17.035156 19.9375 -16.453125 L 19.9375 -1.859375 C 19.9375 -1.242188 19.710938 -0.78125 19.265625 -0.46875 C 18.816406 -0.15625 18.347656 0 17.859375 0 C 17.328125 0 16.847656 -0.160156 16.421875 -0.484375 C 16.003906 -0.816406 15.796875 -1.285156 15.796875 -1.890625 L 15.796875 -2.03125 C 14.804688 -1.0625 13.773438 -0.421875 12.703125 -0.109375 C 11.640625 0.203125 10.648438 0.359375 9.734375 0.359375 C 7.210938 0.359375 5.25 -0.429688 3.84375 -2.015625 C 2.445312 -3.597656 1.75 -5.742188 1.75 -8.453125 L 1.75 -16.453125 C 1.75 -17.003906 1.925781 -17.476562 2.28125 -17.875 C 2.644531 -18.28125 3.15625 -18.484375 3.8125 -18.484375 C 4.4375 -18.484375 4.9375 -18.28125 5.3125 -17.875 C 5.6875 -17.476562 5.875 -17.003906 5.875 -16.453125 L 5.875 -8.390625 C 5.875 -6.816406 6.234375 -5.566406 6.953125 -4.640625 C 7.671875 -3.722656 8.800781 -3.265625 10.34375 -3.265625 C 10.800781 -3.265625 11.335938 -3.390625 11.953125 -3.640625 C 12.578125 -3.898438 13.179688 -4.285156 13.765625 -4.796875 C 14.347656 -5.304688 14.832031 -5.953125 15.21875 -6.734375 C 15.601562 -7.523438 15.796875 -8.453125 15.796875 -9.515625 L 15.796875 -16.453125 C 15.796875 -17.035156 15.960938 -17.519531 16.296875 -17.90625 C 16.640625 -18.289062 17.148438 -18.484375 17.828125 -18.484375 Z M 17.828125 -18.484375 "/></g></g><g style="fill:#373643;fill-opacity:1;"><g transform="translate(215.819436, 200.041029)"><path style="stroke:none" d="M 5.453125 -21.203125 C 5.453125 -20.597656 5.226562 -20.144531 4.78125 -19.84375 C 4.332031 -19.539062 3.851562 -19.390625 3.34375 -19.390625 C 2.8125 -19.390625 2.328125 -19.539062 1.890625 -19.84375 C 1.453125 -20.144531 1.234375 -20.597656 1.234375 -21.203125 L 1.234375 -21.671875 C 1.234375 -22.304688 1.453125 -22.769531 1.890625 -23.0625 C 2.328125 -23.351562 2.8125 -23.5 3.34375 -23.5 C 3.851562 -23.5 4.332031 -23.351562 4.78125 -23.0625 C 5.226562 -22.769531 5.453125 -22.304688 5.453125 -21.671875 Z M 1.265625 -16.703125 C 1.265625 -17.285156 1.488281 -17.726562 1.9375 -18.03125 C 2.382812 -18.332031 2.851562 -18.484375 3.34375 -18.484375 C 3.851562 -18.484375 4.320312 -18.332031 4.75 -18.03125 C 5.1875 -17.726562 5.40625 -17.296875 5.40625 -16.734375 L 5.40625 -1.78125 C 5.40625 -1.175781 5.1875 -0.726562 4.75 -0.4375 C 4.320312 -0.144531 3.851562 0 3.34375 0 C 2.851562 0 2.382812 -0.144531 1.9375 -0.4375 C 1.488281 -0.726562 1.265625 -1.175781 1.265625 -1.78125 Z M 1.265625 -16.703125 "/></g></g><g style="fill:#373643;fill-opacity:1;"><g transform="translate(221.772581, 200.041029)"><path style="stroke:none" d="M 9.796875 -18.484375 C 10.453125 -18.484375 10.972656 -18.34375 11.359375 -18.0625 C 11.753906 -17.78125 11.953125 -17.328125 11.953125 -16.703125 C 11.953125 -16.117188 11.753906 -15.65625 11.359375 -15.3125 C 10.972656 -14.976562 10.453125 -14.8125 9.796875 -14.8125 C 8.273438 -14.8125 7.207031 -14.265625 6.59375 -13.171875 C 5.976562 -12.085938 5.671875 -10.613281 5.671875 -8.75 L 5.671875 -1.859375 C 5.671875 -1.316406 5.472656 -0.867188 5.078125 -0.515625 C 4.691406 -0.171875 4.222656 0 3.671875 0 C 3.035156 0 2.523438 -0.171875 2.140625 -0.515625 C 1.753906 -0.867188 1.5625 -1.316406 1.5625 -1.859375 L 1.5625 -16.625 C 1.5625 -17.207031 1.785156 -17.660156 2.234375 -17.984375 C 2.679688 -18.316406 3.160156 -18.484375 3.671875 -18.484375 C 4.179688 -18.484375 4.640625 -18.320312 5.046875 -18 C 5.460938 -17.6875 5.671875 -17.226562 5.671875 -16.625 L 5.671875 -16.40625 C 6.203125 -17.113281 6.816406 -17.632812 7.515625 -17.96875 C 8.210938 -18.3125 8.972656 -18.484375 9.796875 -18.484375 Z M 9.796875 -18.484375 "/></g></g><g style="fill:#373643;fill-opacity:1;"><g transform="translate(232.626439, 200.041029)"><path style="stroke:none" d="M 10.390625 -3.234375 C 11.085938 -3.234375 11.773438 -3.328125 12.453125 -3.515625 C 13.128906 -3.710938 13.757812 -4.039062 14.34375 -4.5 C 14.894531 -5.007812 15.4375 -5.242188 15.96875 -5.203125 C 16.507812 -5.171875 16.953125 -4.976562 17.296875 -4.625 C 17.648438 -4.28125 17.828125 -3.847656 17.828125 -3.328125 C 17.828125 -2.804688 17.570312 -2.300781 17.0625 -1.8125 C 16.21875 -0.988281 15.210938 -0.410156 14.046875 -0.078125 C 12.890625 0.242188 11.707031 0.390625 10.5 0.359375 C 8.601562 0.359375 6.9375 -0.0234375 5.5 -0.796875 C 4.0625 -1.566406 2.9375 -2.640625 2.125 -4.015625 C 1.3125 -5.398438 0.90625 -7.003906 0.90625 -8.828125 C 0.90625 -10.804688 1.289062 -12.546875 2.0625 -14.046875 C 2.84375 -15.546875 3.941406 -16.71875 5.359375 -17.5625 C 6.773438 -18.414062 8.453125 -18.84375 10.390625 -18.84375 C 12.328125 -18.84375 13.972656 -18.445312 15.328125 -17.65625 C 16.679688 -16.875 17.710938 -15.773438 18.421875 -14.359375 C 19.140625 -12.941406 19.5 -11.289062 19.5 -9.40625 C 19.5 -8.800781 19.378906 -8.285156 19.140625 -7.859375 C 18.898438 -7.429688 18.257812 -7.21875 17.21875 -7.21875 L 5.125 -7.21875 C 5.457031 -6.039062 6.09375 -5.082031 7.03125 -4.34375 C 7.976562 -3.601562 9.097656 -3.234375 10.390625 -3.234375 Z M 10.421875 -15.25 C 9.015625 -15.25 7.835938 -14.804688 6.890625 -13.921875 C 5.953125 -13.035156 5.347656 -11.878906 5.078125 -10.453125 L 15.65625 -10.453125 C 15.53125 -11.878906 15.054688 -13.035156 14.234375 -13.921875 C 13.410156 -14.804688 12.140625 -15.25 10.421875 -15.25 Z M 10.421875 -15.25 "/></g></g><g style="fill:#373643;fill-opacity:1;"><g transform="translate(253.717349, 200.041029)"><path style="stroke:none" d="M 6.28125 -19.609375 L 6.28125 -12.375 L 17.90625 -12.375 C 18.53125 -12.375 19 -12.1875 19.3125 -11.8125 C 19.632812 -11.4375 19.796875 -11.035156 19.796875 -10.609375 C 19.796875 -10.171875 19.632812 -9.773438 19.3125 -9.421875 C 19 -9.066406 18.53125 -8.890625 17.90625 -8.890625 L 6.28125 -8.890625 L 6.28125 -1.953125 C 6.28125 -1.328125 6.0625 -0.84375 5.625 -0.5 C 5.1875 -0.164062 4.71875 0 4.21875 0 C 3.675781 0 3.1875 -0.164062 2.75 -0.5 C 2.320312 -0.84375 2.109375 -1.316406 2.109375 -1.921875 L 2.109375 -20.984375 C 2.109375 -21.566406 2.34375 -22.066406 2.8125 -22.484375 C 3.28125 -22.910156 3.832031 -23.125 4.46875 -23.125 L 18.5625 -23.125 C 19.207031 -23.125 19.6875 -22.941406 20 -22.578125 C 20.320312 -22.222656 20.484375 -21.816406 20.484375 -21.359375 C 20.484375 -20.921875 20.320312 -20.519531 20 -20.15625 C 19.6875 -19.789062 19.207031 -19.609375 18.5625 -19.609375 Z M 6.28125 -19.609375 "/></g></g><g style="fill:#373643;fill-opacity:1;"><g transform="translate(274.735649, 200.041029)"><path style="stroke:none" d="M 5.40625 -1.8125 C 5.40625 -1.332031 5.207031 -0.910156 4.8125 -0.546875 C 4.414062 -0.179688 3.925781 0 3.34375 0 C 2.738281 0 2.238281 -0.179688 1.84375 -0.546875 C 1.457031 -0.910156 1.265625 -1.332031 1.265625 -1.8125 L 1.265625 -21.671875 C 1.265625 -22.160156 1.457031 -22.585938 1.84375 -22.953125 C 2.238281 -23.316406 2.738281 -23.5 3.34375 -23.5 C 3.925781 -23.5 4.414062 -23.316406 4.8125 -22.953125 C 5.207031 -22.585938 5.40625 -22.160156 5.40625 -21.671875 Z M 5.40625 -1.8125 "/></g></g><g style="fill:#373643;fill-opacity:1;"><g transform="translate(280.688786, 200.041029)"><path style="stroke:none" d="M 10.390625 -18.84375 C 12.328125 -18.84375 14.019531 -18.4375 15.46875 -17.625 C 16.914062 -16.8125 18.039062 -15.679688 18.84375 -14.234375 C 19.644531 -12.785156 20.046875 -11.09375 20.046875 -9.15625 C 20.023438 -7.257812 19.609375 -5.597656 18.796875 -4.171875 C 17.984375 -2.742188 16.851562 -1.628906 15.40625 -0.828125 C 13.96875 -0.0351562 12.296875 0.359375 10.390625 0.359375 C 8.492188 0.359375 6.820312 -0.0351562 5.375 -0.828125 C 3.925781 -1.628906 2.796875 -2.742188 1.984375 -4.171875 C 1.171875 -5.597656 0.75 -7.257812 0.71875 -9.15625 C 0.71875 -11.09375 1.125 -12.785156 1.9375 -14.234375 C 2.75 -15.679688 3.878906 -16.8125 5.328125 -17.625 C 6.785156 -18.4375 8.472656 -18.84375 10.390625 -18.84375 Z M 10.390625 -3.265625 C 12.035156 -3.265625 13.347656 -3.804688 14.328125 -4.890625 C 15.304688 -5.984375 15.796875 -7.40625 15.796875 -9.15625 C 15.796875 -10.945312 15.304688 -12.40625 14.328125 -13.53125 C 13.347656 -14.65625 12.035156 -15.21875 10.390625 -15.21875 C 8.765625 -15.21875 7.453125 -14.65625 6.453125 -13.53125 C 5.460938 -12.40625 4.96875 -10.945312 4.96875 -9.15625 C 4.96875 -7.40625 5.460938 -5.984375 6.453125 -4.890625 C 7.453125 -3.804688 8.765625 -3.265625 10.390625 -3.265625 Z M 10.390625 -3.265625 "/></g></g><g style="fill:#373643;fill-opacity:1;"><g transform="translate(300.83585, 200.041029)"><path style="stroke:none" d="M 0.828125 -15.765625 C 0.617188 -16.265625 0.601562 -16.71875 0.78125 -17.125 C 0.957031 -17.539062 1.238281 -17.867188 1.625 -18.109375 C 2.019531 -18.359375 2.421875 -18.484375 2.828125 -18.484375 C 3.242188 -18.484375 3.632812 -18.351562 4 -18.09375 C 4.363281 -17.84375 4.601562 -17.5625 4.71875 -17.25 L 9.4375 -6.46875 L 13.984375 -15.796875 C 14.148438 -16.203125 14.398438 -16.507812 14.734375 -16.71875 C 15.078125 -16.925781 15.457031 -17.03125 15.875 -17.03125 C 16.769531 -17.03125 17.410156 -16.628906 17.796875 -15.828125 L 22.375 -6.390625 L 27.046875 -17.171875 C 27.441406 -18.046875 28.097656 -18.484375 29.015625 -18.484375 C 29.640625 -18.484375 30.175781 -18.222656 30.625 -17.703125 C 31.070312 -17.179688 31.140625 -16.546875 30.828125 -15.796875 L 24.40625 -0.6875 C 24.132812 0.0078125 23.515625 0.359375 22.546875 0.359375 C 22.140625 0.359375 21.757812 0.28125 21.40625 0.125 C 21.050781 -0.03125 20.78125 -0.289062 20.59375 -0.65625 L 15.9375 -10.5 L 11.1875 -0.6875 C 10.84375 0.0078125 10.1875 0.359375 9.21875 0.359375 C 8.8125 0.359375 8.445312 0.28125 8.125 0.125 C 7.8125 -0.03125 7.5625 -0.3125 7.375 -0.71875 Z M 0.828125 -15.765625 "/></g></g><path style=" stroke:none;fill-rule:nonzero;fill:#373643;fill-opacity:1;" d="M 65.03125 180.414062 C 64.613281 180.0625 51.476562 171.410156 50.183594 170.722656 C 48.554688 169.859375 47.167969 170.792969 47.058594 172.6875 C 47.035156 173.128906 47.171875 194.265625 47.183594 195.691406 C 47.007812 198.476562 47.839844 200.894531 49.808594 202.898438 C 50.761719 203.875 68.304688 214.910156 68.320312 214.875 C 68.613281 214.613281 68.71875 191.382812 68.523438 190.078125 C 69.023438 186.253906 68.078125 182.953125 65.03125 180.414062 Z M 65.03125 180.414062 "/><g clip-rule="nonzero" clip-path="url(#c67a1ebb38)"><path style=" stroke:none;fill-rule:nonzero;fill:#373643;fill-opacity:1;" d="M 91.609375 213.9375 C 91.632812 210.308594 91.691406 182.535156 91.675781 182.257812 C 91.550781 179.113281 90.269531 176.507812 87.664062 174.769531 C 83.171875 171.773438 73.28125 165.617188 72.949219 165.488281 C 72.570312 165.316406 72.207031 165.242188 71.875 165.257812 C 71.570312 165.265625 71.304688 165.339844 71.078125 165.492188 C 70.480469 165.839844 70.078125 166.558594 70.019531 167.539062 C 70 167.90625 70.074219 213.46875 70.058594 215.195312 C 70.050781 215.886719 70.195312 216.300781 70.890625 216.710938 C 73.5625 218.277344 76.183594 219.9375 78.769531 221.648438 C 80.285156 222.65625 81.660156 222.628906 83.152344 221.644531 C 85.382812 220.179688 87.597656 218.671875 89.929688 217.394531 C 91.4375 216.570312 92.046875 215.574219 91.609375 213.9375 Z M 91.609375 213.9375 "/></g><g clip-rule="nonzero" clip-path="url(#e6a69b913d)"><path style=" stroke:none;fill-rule:nonzero;fill:#373643;fill-opacity:1;" d="M 114.769531 171.039062 C 114.804688 170.453125 114.808594 169.882812 114.769531 169.328125 C 114.769531 169.289062 114.769531 169.25 114.769531 169.210938 C 114.5625 165.730469 112.910156 163.09375 110.039062 161.199219 C 106.867188 159.101562 103.714844 156.96875 100.460938 155.003906 C 99.132812 154.203125 97.847656 153.28125 96.359375 152.722656 C 96.351562 152.71875 96.339844 152.710938 96.332031 152.707031 C 95.878906 152.464844 95.445312 152.371094 95.054688 152.390625 C 94.417969 152.351562 93.972656 152.578125 93.707031 153.132812 C 93.425781 153.519531 93.246094 154.039062 93.210938 154.667969 C 93.199219 154.839844 93.453125 211.019531 93.394531 214.773438 C 93.699219 215.242188 94.015625 214.933594 94.292969 214.753906 C 98.527344 212.027344 102.757812 209.292969 106.988281 206.558594 C 111.058594 204.542969 114.332031 201.84375 114.738281 196.933594 C 114.90625 194.945312 114.769531 173.074219 114.769531 171.039062 Z M 114.769531 171.039062 "/></g></g></svg>